<?xml version="1.0" encoding="UTF-8"?>
<svg id="Layer_1" xmlns="http://www.w3.org/2000/svg" version="1.1" xmlns:xlink="http://www.w3.org/1999/xlink" viewBox="0 0 500 500">
  <!-- Generator: Adobe Illustrator 29.6.1, SVG Export Plug-In . SVG Version: 2.1.1 Build 9)  -->
  <defs>
    <style>
      .st0 {
        fill: #fff;
      }

      .st1 {
        fill: url(#linear-gradient1);
      }

      .st2 {
        fill: url(#linear-gradient);
      }
    </style>
    <linearGradient id="linear-gradient" x1="190.44" y1="172.62" x2="378.44" y2="353.74" gradientTransform="translate(-2.18 555.07) rotate(-8.56) scale(1 -1)" gradientUnits="userSpaceOnUse">
      <stop offset=".1" stop-color="#662d91"/>
      <stop offset=".83" stop-color="#f0f"/>
    </linearGradient>
    <linearGradient id="linear-gradient1" x1="109.74" y1="88.77" x2="349.46" y2="412.97" gradientTransform="translate(0 502) scale(1 -1)" gradientUnits="userSpaceOnUse">
      <stop offset=".14" stop-color="#0193cc"/>
      <stop offset=".88" stop-color="#01d0cc"/>
    </linearGradient>
  </defs>
  <g id="OBJECT">
    <g>
      <path class="st2" d="M467.98,253.37c5.07-78.99-88.41-149.3-208.79-157.03S37.09,146.38,32.02,225.38c-5.07,78.99,88.41,149.3,208.79,157.03s222.09-50.04,227.17-129.03Z"/>
      <path class="st1" d="M416.39,111.69c-47.42-69.73-161.24-75.01-254.23-11.78-92.99,63.23-129.94,171.02-82.52,240.75,15.92,23.42,39.36,39.53,66.95,48.26-15.38,11.4-44.63,25.01-94.82,21.82,53,19.14,96.04,21.58,129.65,16.63h.01c136.26-11.12,221.2-143.09,221.2-143.09l-.03.02c38.93-57.45,46.7-124.19,13.78-172.6Z"/>
      <path class="st0" d="M436.69,171.95c-36.58-41.04-101.69-70.73-177.51-75.6-38.85-2.5-75.72,1.86-108.06,11.52-71.85,54.24-105.06,135.42-86.93,199.96,18.19,64.75,82.39,81.13,82.39,81.13,0,0,30.19-20.74,21.41-47.7-.06-.18-.12-.36-.18-.53-.69-2.08-1.4-4.21-2.11-6.36-26.31,2.48-56.15-28.13-68.81-72.12-13.58-47.18-2.26-91.86,25.29-99.79,1.95-.56,3.92-.9,5.92-1.07-.4-2.19-.55-4.41-.41-6.64,1.69-26.26,41.28-45.09,88.43-42.06,47.15,3.03,84.01,26.77,82.33,53.03-.41,6.34-3.04,12.24-7.44,17.51.98,2.3,1.83,4.67,2.52,7.09,2.2,7.71,2.79,15.42,2.02,22.96-.5,4.93.71,9.78,3.33,14.09l20.05,33.01c1.48,2.43-.59,5.47-4.09,6l-13.14,1.98c-2.41.36-4.29,1.98-4.54,3.9-2.02,13.43-1,41.36-17.28,46.21-11.68,3.48-24.55,12.01-26.62,24.79-.56,3.48-.7,6.9-.41,10.23,5.91,24.73,31.89,27.19,41.58,27.23,4.76-.11,9.21-.43,13.1-.86.01,0,.02,0,.03-.01,4.32-3.07,13.58-10.17,19.57-14.6,67.07-49.58,114.23-125.86,109.54-193.28ZM315.44,301.42c-3.66.55-7.08-1.97-7.63-5.63-.55-3.66,1.97-7.08,5.63-7.63,3.66-.55,7.08,1.97,7.63,5.63.55,3.66-1.97,7.08-5.63,7.63ZM339.44,301.42c-3.66.55-7.08-1.97-7.63-5.63-.55-3.66,1.97-7.08,5.63-7.63,3.66-.55,7.08,1.97,7.63,5.63.55,3.66-1.97,7.08-5.63,7.63ZM363.44,301.42c-3.66.55-7.08-1.97-7.63-5.63-.55-3.66,1.97-7.08,5.63-7.63s7.08,1.97,7.63,5.63c.55,3.66-1.97,7.08-5.63,7.63Z"/>
    </g>
  </g>
</svg>